<?xml version="1.0" standalone="no"?>
<!DOCTYPE svg PUBLIC "-//W3C//DTD SVG 20010904//EN"
 "http://www.w3.org/TR/2001/REC-SVG-20010904/DTD/svg10.dtd">
<svg version="1.0" xmlns="http://www.w3.org/2000/svg"
 width="1600.000000pt" height="1600.000000pt" viewBox="0 0 1600.000000 1600.000000"
 preserveAspectRatio="xMidYMid meet">

<g transform="translate(0.000000,1600.000000) scale(0.100000,-0.100000)"
fill="#000000" stroke="none">
<path d="M1920 9122 l0 -5602 283 0 c1057 0 2096 -130 3202 -400 873 -213
1887 -566 2478 -861 l117 -58 118 58 c234 117 584 264 943 395 1572 571 3182
866 4737 866 l282 0 0 5602 0 5601 -442 -6 c-859 -12 -1509 -75 -2353 -228
-1062 -193 -2283 -565 -3127 -955 l-158 -72 -152 70 c-850 391 -2070 764
-3133 957 -844 153 -1491 216 -2352 228 l-443 6 0 -5601z m915 4918 c1378 -72
2740 -346 4057 -816 211 -75 598 -228 721 -283 l67 -31 0 -4935 0 -4935 -37
15 c-1477 618 -3155 990 -4815 1066 l-268 13 0 4958 0 4958 43 0 c23 0 128 -5
232 -10z m10605 -4948 l0 -4958 -267 -13 c-1663 -76 -3337 -447 -4815 -1066
l-38 -15 0 4935 0 4935 68 31 c37 16 167 70 290 120 1183 473 2519 798 3822
928 309 31 664 56 863 60 l77 1 0 -4958z"/>
<path d="M4430 10930 l0 -600 -690 0 -690 0 0 -520 0 -520 690 0 690 0 0
-1580 0 -1580 610 0 610 0 0 1580 0 1580 630 0 630 0 0 520 0 520 -630 0 -630
0 0 600 0 600 -610 0 -610 0 0 -600z"/>
<path d="M9933 11009 c-257 -24 -491 -218 -622 -516 -202 -460 -143 -1113 160
-1776 246 -542 669 -1045 1192 -1419 67 -48 158 -108 201 -132 l79 -45 48 24
c140 72 435 293 627 472 563 523 956 1245 1059 1942 24 162 24 483 0 606 -65
333 -200 575 -403 721 -120 86 -236 124 -384 125 -378 3 -709 -302 -932 -860
l-14 -35 -22 60 c-69 190 -207 416 -339 554 -201 212 -410 301 -650 279z"/>
<path d="M640 7680 l0 -5440 323 0 c1596 0 3207 -193 4761 -569 753 -183 1616
-457 2129 -677 l147 -63 148 63 c293 126 721 277 1177 416 1771 539 3771 830
5713 830 l322 0 0 5440 0 5440 -320 0 -320 0 0 -5129 0 -5129 -122 -6 c-68 -3
-251 -10 -408 -16 -1361 -50 -2839 -256 -4135 -577 -190 -47 -582 -150 -700
-185 -427 -125 -832 -259 -1120 -370 -99 -39 -194 -75 -210 -80 -26 -8 -48 -3
-155 40 -319 127 -742 269 -1225 410 -117 34 -509 138 -700 185 -1295 320
-2774 527 -4135 577 -157 6 -340 13 -407 16 l-123 6 0 5129 0 5129 -320 0
-320 0 0 -5440z"/>
</g>
</svg>
