<svg aria-hidden="true" style="position: absolute; width: 0; height: 0; overflow: hidden;" version="1.1" xmlns="http://www.w3.org/2000/svg" xmlns:xlink="http://www.w3.org/1999/xlink">
<defs>
<symbol id="icon-open-book" viewBox="0 0 32 32">
<path d="M3.84 13.756v11.204h0.566c2.114 0 4.192 0.26 6.404 0.8 1.746 0.426 3.774 1.132 4.956 1.722l0.234 0.116 0.236-0.116c0.468-0.234 1.168-0.528 1.886-0.79 3.144-1.142 6.364-1.732 9.474-1.732h0.564v-22.406l-0.884 0.012c-1.718 0.024-3.018 0.15-4.706 0.456-2.124 0.386-4.566 1.13-6.254 1.91l-0.316 0.144-0.304-0.14c-1.7-0.782-4.14-1.528-6.266-1.914-1.688-0.306-2.982-0.432-4.704-0.456l-0.886-0.012v11.202zM5.67 3.92c2.756 0.144 5.48 0.692 8.114 1.632 0.422 0.15 1.196 0.456 1.442 0.566l0.134 0.062v19.74l-0.074-0.030c-2.954-1.236-6.31-1.98-9.63-2.132l-0.536-0.026v-19.832h0.086c0.046 0 0.256 0.010 0.464 0.020zM26.88 13.816v9.916l-0.534 0.026c-3.326 0.152-6.674 0.894-9.63 2.132l-0.076 0.030v-19.74l0.136-0.062c0.074-0.032 0.334-0.14 0.58-0.24 2.366-0.946 5.038-1.596 7.644-1.856 0.618-0.062 1.328-0.112 1.726-0.12l0.154-0.002v9.916z"></path>
<path d="M8.86 10.14v1.2h-2.76v2.080h2.76v6.32h2.44v-6.32h2.52v-2.080h-2.52v-2.4h-2.44v1.2z"></path>
<path d="M19.866 9.982c-0.514 0.048-0.982 0.436-1.244 1.032-0.404 0.92-0.286 2.226 0.32 3.552 0.492 1.084 1.338 2.090 2.384 2.838 0.134 0.096 0.316 0.216 0.402 0.264l0.158 0.090 0.096-0.048c0.28-0.144 0.87-0.586 1.254-0.944 1.126-1.046 1.912-2.49 2.118-3.884 0.048-0.324 0.048-0.966 0-1.212-0.13-0.666-0.4-1.15-0.806-1.442-0.24-0.172-0.472-0.248-0.768-0.25-0.756-0.006-1.418 0.604-1.864 1.72l-0.028 0.070-0.044-0.12c-0.138-0.38-0.414-0.832-0.678-1.108-0.402-0.424-0.82-0.602-1.3-0.558z"></path>
<path d="M1.28 16.64v10.88h0.646c3.192 0 6.414 0.386 9.522 1.138 1.506 0.366 3.232 0.914 4.258 1.354l0.294 0.126 0.296-0.126c0.586-0.252 1.442-0.554 2.354-0.832 3.542-1.078 7.542-1.66 11.426-1.66h0.644v-21.76h-1.28v20.516l-0.244 0.012c-0.136 0.006-0.502 0.020-0.816 0.032-2.722 0.1-5.678 0.512-8.27 1.154-0.38 0.094-1.164 0.3-1.4 0.37-0.854 0.25-1.664 0.518-2.24 0.74-0.198 0.078-0.388 0.15-0.42 0.16-0.052 0.016-0.096 0.006-0.31-0.080-0.638-0.254-1.484-0.538-2.45-0.82-0.234-0.068-1.018-0.276-1.4-0.37-2.59-0.64-5.548-1.054-8.27-1.154-0.314-0.012-0.68-0.026-0.814-0.032l-0.246-0.012v-20.516h-1.28v10.88z"></path>
</symbol>
</defs>
</svg>
